<svg xmlns="http://www.w3.org/2000/svg" viewBox="0 0 200 200" role="img" aria-label="Enemy bat icon">
  <defs>
    <linearGradient id="wingGrad" x1="0" y1="0" x2="0" y2="1">
      <stop offset="0%" stop-color="#7d5cff"/>
      <stop offset="100%" stop-color="#3a2a80"/>
    </linearGradient>
    <linearGradient id="bodyGrad" x1="0" y1="0" x2="0" y2="1">
      <stop offset="0%" stop-color="#ff8d4d"/>
      <stop offset="100%" stop-color="#ef5f17"/>
    </linearGradient>
    <filter id="shadow" x="-30%" y="-30%" width="160%" height="160%">
      <feDropShadow dx="0" dy="4" stdDeviation="3" flood-color="#000" flood-opacity="0.35"/>
    </filter>
  </defs>

  <g filter="url(#shadow)">
    <path d="M100 90c-22-18-55-28-84-25 12 7 20 17 24 31-16 0-30 9-40 25 17-8 33-8 46-2 16 7 34 6 54-5V90z" fill="url(#wingGrad)"/>
    <path d="M100 90c22-18 55-28 84-25-12 7-20 17-24 31 16 0 30 9 40 25-17-8-33-8-46-2-16 7-34 6-54-5V90z" fill="url(#wingGrad)"/>

    <ellipse cx="100" cy="103" rx="27" ry="33" fill="url(#bodyGrad)" stroke="#ffd0b4" stroke-width="2"/>
    <path d="M88 74l12-14 12 14" fill="#ef5f17" stroke="#ffd0b4" stroke-width="2" stroke-linejoin="round"/>

    <circle cx="90" cy="100" r="6" fill="#fff"/>
    <circle cx="110" cy="100" r="6" fill="#fff"/>
    <circle cx="92" cy="101" r="3" fill="#1549a4"/>
    <circle cx="112" cy="101" r="3" fill="#1549a4"/>
    <path d="M95 114q5 6 10 0" fill="none" stroke="#3b1b0a" stroke-width="3" stroke-linecap="round"/>

    <path d="M86 137l8 11 6-11 6 11 8-11" fill="none" stroke="#ffd0b4" stroke-width="3" stroke-linecap="round"/>
  </g>
</svg>
